<svg width="53" height="14" viewBox="0 0 53 14" fill="none" xmlns="http://www.w3.org/2000/svg">
<path d="M-0.00599992 13V0.399999H2.91V10.624H9.228V13H-0.00599992ZM16.7663 13.216C15.7703 13.216 14.8463 13.054 13.9943 12.73C13.1543 12.406 12.4223 11.95 11.7983 11.362C11.1863 10.774 10.7063 10.084 10.3583 9.292C10.0223 8.5 9.85434 7.636 9.85434 6.7C9.85434 5.764 10.0223 4.9 10.3583 4.108C10.7063 3.316 11.1923 2.626 11.8163 2.038C12.4403 1.45 13.1723 0.993999 14.0123 0.669999C14.8523 0.345999 15.7643 0.184 16.7483 0.184C17.7443 0.184 18.6563 0.345999 19.4843 0.669999C20.3243 0.993999 21.0503 1.45 21.6623 2.038C22.2863 2.626 22.7723 3.316 23.1203 4.108C23.4683 4.888 23.6423 5.752 23.6423 6.7C23.6423 7.636 23.4683 8.506 23.1203 9.31C22.7723 10.102 22.2863 10.792 21.6623 11.38C21.0503 11.956 20.3243 12.406 19.4843 12.73C18.6563 13.054 17.7503 13.216 16.7663 13.216ZM16.7483 10.732C17.3123 10.732 17.8283 10.636 18.2963 10.444C18.7763 10.252 19.1963 9.976 19.5563 9.616C19.9163 9.256 20.1923 8.83 20.3843 8.338C20.5883 7.846 20.6903 7.3 20.6903 6.7C20.6903 6.1 20.5883 5.554 20.3843 5.062C20.1923 4.57 19.9163 4.144 19.5563 3.784C19.2083 3.424 18.7943 3.148 18.3143 2.956C17.8343 2.764 17.3123 2.668 16.7483 2.668C16.1843 2.668 15.6623 2.764 15.1823 2.956C14.7143 3.148 14.3003 3.424 13.9403 3.784C13.5803 4.144 13.2983 4.57 13.0943 5.062C12.9023 5.554 12.8063 6.1 12.8063 6.7C12.8063 7.288 12.9023 7.834 13.0943 8.338C13.2983 8.83 13.5743 9.256 13.9223 9.616C14.2823 9.976 14.7023 10.252 15.1823 10.444C15.6623 10.636 16.1843 10.732 16.7483 10.732ZM31.9178 13.216C30.9218 13.216 30.0038 13.06 29.1638 12.748C28.3358 12.424 27.6098 11.968 26.9858 11.38C26.3738 10.792 25.8938 10.102 25.5458 9.31C25.2098 8.518 25.0418 7.648 25.0418 6.7C25.0418 5.752 25.2098 4.882 25.5458 4.09C25.8938 3.298 26.3798 2.608 27.0038 2.02C27.6278 1.432 28.3598 0.981999 29.1998 0.669999C30.0398 0.345999 30.9638 0.184 31.9718 0.184C33.0878 0.184 34.0898 0.37 34.9778 0.741999C35.8778 1.114 36.6338 1.654 37.2458 2.362L35.3738 4.09C34.9178 3.61 34.4198 3.256 33.8798 3.028C33.3398 2.788 32.7518 2.668 32.1158 2.668C31.5038 2.668 30.9458 2.764 30.4418 2.956C29.9378 3.148 29.4998 3.424 29.1278 3.784C28.7678 4.144 28.4858 4.57 28.2818 5.062C28.0898 5.554 27.9938 6.1 27.9938 6.7C27.9938 7.288 28.0898 7.828 28.2818 8.32C28.4858 8.812 28.7678 9.244 29.1278 9.616C29.4998 9.976 29.9318 10.252 30.4238 10.444C30.9278 10.636 31.4798 10.732 32.0798 10.732C32.6558 10.732 33.2138 10.642 33.7538 10.462C34.3058 10.27 34.8398 9.952 35.3558 9.508L37.0118 11.614C36.3278 12.13 35.5298 12.526 34.6178 12.802C33.7178 13.078 32.8178 13.216 31.9178 13.216ZM34.3478 11.236V6.502H37.0118V11.614L34.3478 11.236ZM45.8406 13.216C44.8446 13.216 43.9206 13.054 43.0686 12.73C42.2286 12.406 41.4966 11.95 40.8726 11.362C40.2606 10.774 39.7806 10.084 39.4326 9.292C39.0966 8.5 38.9286 7.636 38.9286 6.7C38.9286 5.764 39.0966 4.9 39.4326 4.108C39.7806 3.316 40.2666 2.626 40.8906 2.038C41.5146 1.45 42.2466 0.993999 43.0866 0.669999C43.9266 0.345999 44.8386 0.184 45.8226 0.184C46.8186 0.184 47.7306 0.345999 48.5586 0.669999C49.3986 0.993999 50.1246 1.45 50.7366 2.038C51.3606 2.626 51.8466 3.316 52.1946 4.108C52.5426 4.888 52.7166 5.752 52.7166 6.7C52.7166 7.636 52.5426 8.506 52.1946 9.31C51.8466 10.102 51.3606 10.792 50.7366 11.38C50.1246 11.956 49.3986 12.406 48.5586 12.73C47.7306 13.054 46.8246 13.216 45.8406 13.216ZM45.8226 10.732C46.3866 10.732 46.9026 10.636 47.3706 10.444C47.8506 10.252 48.2706 9.976 48.6306 9.616C48.9906 9.256 49.2666 8.83 49.4586 8.338C49.6626 7.846 49.7646 7.3 49.7646 6.7C49.7646 6.1 49.6626 5.554 49.4586 5.062C49.2666 4.57 48.9906 4.144 48.6306 3.784C48.2826 3.424 47.8686 3.148 47.3886 2.956C46.9086 2.764 46.3866 2.668 45.8226 2.668C45.2586 2.668 44.7366 2.764 44.2566 2.956C43.7886 3.148 43.3746 3.424 43.0146 3.784C42.6546 4.144 42.3726 4.57 42.1686 5.062C41.9766 5.554 41.8806 6.1 41.8806 6.7C41.8806 7.288 41.9766 7.834 42.1686 8.338C42.3726 8.83 42.6486 9.256 42.9966 9.616C43.3566 9.976 43.7766 10.252 44.2566 10.444C44.7366 10.636 45.2586 10.732 45.8226 10.732Z" fill="#0C131B"/>
</svg>
